<svg width="184" height="62" viewBox="0 0 184 62" fill="none" xmlns="http://www.w3.org/2000/svg">
<path d="M64.5186 30.7393C64.5186 35.4404 63.708 39.6823 62.0869 43.4648C60.4658 47.2204 58.2233 50.4085 55.3594 53.0293C52.4954 55.6501 49.1047 57.6629 45.187 59.0679C41.2694 60.4728 37.0275 61.1753 32.4614 61.1753C27.8953 61.1753 23.6535 60.4728 19.7358 59.0679C15.8182 57.6629 12.4274 55.6501 9.56348 53.0293C6.69954 50.4085 4.45703 47.2204 2.83594 43.4648C1.21484 39.6823 0.404297 35.4404 0.404297 30.7393C0.404297 25.957 1.20133 21.6882 2.79541 17.9326C4.4165 14.1501 6.64551 10.9619 9.48242 8.36816C12.3464 5.7474 15.7371 3.74805 19.6548 2.37012C23.5724 0.965169 27.8413 0.262695 32.4614 0.262695C37.0815 0.262695 41.3504 0.965169 45.2681 2.37012C49.1857 3.74805 52.563 5.7474 55.3999 8.36816C58.2638 10.9619 60.4928 14.1501 62.0869 17.9326C63.708 21.6882 64.5186 25.957 64.5186 30.7393ZM48.1455 30.7393C48.1455 28.9561 48.0645 27.1323 47.9023 25.2681C47.7402 23.4038 47.443 21.5936 47.0107 19.8374C46.5785 18.0812 45.984 16.4331 45.2275 14.8931C44.498 13.353 43.5524 12.0156 42.3906 10.8809C41.2288 9.71908 39.8239 8.81396 38.1758 8.16553C36.5547 7.49007 34.6499 7.15234 32.4614 7.15234C30.2459 7.15234 28.3141 7.49007 26.666 8.16553C25.0179 8.81396 23.613 9.70557 22.4512 10.8403C21.2894 11.9751 20.3438 13.3125 19.6143 14.8525C18.8848 16.3926 18.3039 18.0407 17.8716 19.7969C17.4663 21.526 17.1826 23.3363 17.0205 25.2275C16.8584 27.0918 16.7773 28.929 16.7773 30.7393C16.7773 32.5225 16.8584 34.3462 17.0205 36.2104C17.1826 38.0747 17.4798 39.8849 17.9121 41.6411C18.3444 43.3703 18.9253 45.0049 19.6548 46.5449C20.4113 48.085 21.3704 49.4359 22.5322 50.5977C23.694 51.7324 25.0854 52.6375 26.7065 53.313C28.3547 53.9884 30.2729 54.3262 32.4614 54.3262C34.5959 54.3262 36.4601 53.9884 38.0542 53.313C39.6483 52.6105 41.0262 51.6784 42.188 50.5166C43.3498 49.3278 44.3089 47.9634 45.0654 46.4233C45.849 44.8563 46.4569 43.2082 46.8892 41.479C47.3485 39.7228 47.6727 37.9261 47.8618 36.0889C48.0509 34.2516 48.1455 32.4684 48.1455 30.7393ZM91.6313 1.64062C90.9019 3.8291 90.2669 6.09863 89.7266 8.44922C89.1862 10.7728 88.7404 13.1099 88.3892 15.4604C88.0379 17.784 87.7677 20.0806 87.5786 22.3501C87.4165 24.6196 87.3354 26.7676 87.3354 28.7939C87.3354 30.2799 87.3354 31.9551 87.3354 33.8193C87.3625 35.6566 87.4705 37.5343 87.6597 39.4526C87.8758 41.3709 88.2135 43.2487 88.6729 45.0859C89.1322 46.8962 89.8076 48.5173 90.6992 49.9492C91.6178 51.3812 92.7796 52.5295 94.1846 53.394C95.6165 54.2586 97.3862 54.6909 99.4937 54.6909C101.358 54.6909 102.952 54.3802 104.276 53.7588C105.627 53.1104 106.762 52.2458 107.68 51.165C108.626 50.0843 109.369 48.8415 109.909 47.4365C110.477 46.0316 110.909 44.5591 111.206 43.019C111.53 41.479 111.733 39.9255 111.814 38.3584C111.922 36.7643 111.976 35.2513 111.976 33.8193V1.64062H128.065V31.3066C128.065 35.5485 127.39 39.4932 126.039 43.1406C124.688 46.7881 122.783 49.9627 120.325 52.6646C117.866 55.3394 114.894 57.4468 111.409 58.9868C107.923 60.4998 104.06 61.2563 99.8179 61.2563C96.8999 61.2563 94.1846 60.8376 91.6719 60C89.1592 59.1895 86.8491 58.0682 84.7417 56.6362C82.6613 55.1772 80.797 53.4616 79.1489 51.4893C77.5278 49.4899 76.1634 47.3149 75.0557 44.9644C73.9749 42.6138 73.1509 40.1416 72.5835 37.5479C72.0161 34.9271 71.7594 32.2793 71.8135 29.6045V28.7939C71.8405 26.6325 72.0566 24.4035 72.4619 22.1069C72.8672 19.7834 73.4076 17.4598 74.083 15.1362C74.7855 12.8127 75.623 10.5161 76.5957 8.24658C77.5684 5.95003 78.6491 3.74805 79.8379 1.64062H91.6313ZM167.58 60H151.49V9.09766H135.604V1.64062H183.466V9.09766H167.58V60Z" fill="#F1A22A"/>
</svg>
