<svg width="207" height="76" viewBox="0 0 207 76" fill="none" xmlns="http://www.w3.org/2000/svg">
<path d="M32.5972 66H16.5078V15.0977H0.621094V7.64062H48.4839V15.0977H32.5972V66ZM69.4365 7.88379C69.4365 8.91048 69.2339 9.88314 68.8286 10.8018C68.4504 11.7204 67.9235 12.5174 67.248 13.1929C66.5726 13.8683 65.7756 14.4087 64.8569 14.814C63.9383 15.1922 62.9657 15.3813 61.939 15.3813C60.9123 15.3813 59.9396 15.1922 59.021 14.814C58.1294 14.4087 57.3459 13.8683 56.6704 13.1929C55.995 12.5174 55.4546 11.7204 55.0493 10.8018C54.6711 9.88314 54.4819 8.91048 54.4819 7.88379C54.4819 6.8571 54.6711 5.89795 55.0493 5.00635C55.4546 4.08773 55.995 3.29069 56.6704 2.61523C57.3459 1.93978 58.1294 1.41292 59.021 1.03467C59.9396 0.629395 60.9123 0.426758 61.939 0.426758C62.9657 0.426758 63.9383 0.629395 64.8569 1.03467C65.7756 1.41292 66.5726 1.93978 67.248 2.61523C67.9235 3.29069 68.4504 4.08773 68.8286 5.00635C69.2339 5.89795 69.4365 6.8571 69.4365 7.88379ZM68.8286 66H55.0898V19.2314H68.8286V66ZM152.761 38.6846C152.761 41.8997 152.382 45.25 151.626 48.7354C150.869 52.2207 149.802 55.625 148.424 58.9482C147.073 62.2445 145.439 65.3651 143.521 68.3101C141.602 71.255 139.468 73.8083 137.117 75.9697L131.97 73.1733C132.754 71.7684 133.47 70.1878 134.118 68.4316C134.767 66.6755 135.361 64.8247 135.901 62.8794C136.442 60.9341 136.915 58.9347 137.32 56.8813C137.725 54.828 138.063 52.7881 138.333 50.7617C138.63 48.7083 138.846 46.7225 138.981 44.8042C139.117 42.8859 139.184 41.0892 139.184 39.4141C139.184 38.4684 139.157 37.4417 139.103 36.334C139.049 35.2262 138.927 34.1185 138.738 33.0107C138.576 31.903 138.319 30.8493 137.968 29.8496C137.617 28.8229 137.131 27.9178 136.509 27.1343C135.915 26.3237 135.158 25.6888 134.24 25.2295C133.348 24.7432 132.267 24.5 130.998 24.5C129.755 24.5 128.688 24.8377 127.796 25.5132C126.931 26.1616 126.188 27.0127 125.567 28.0664C124.945 29.1201 124.446 30.3089 124.067 31.6328C123.716 32.9567 123.446 34.2941 123.257 35.645C123.068 36.9689 122.933 38.2388 122.852 39.4546C122.798 40.6704 122.771 41.6971 122.771 42.5347V66H109.113V44.1963C109.113 43.2507 109.126 42.1159 109.153 40.792C109.18 39.4411 109.14 38.0361 109.032 36.5771C108.951 35.1182 108.775 33.6727 108.505 32.2407C108.262 30.7817 107.856 29.4849 107.289 28.3501C106.749 27.2153 106.006 26.2967 105.06 25.5942C104.114 24.8647 102.926 24.5 101.494 24.5C100.278 24.5 99.2511 24.8377 98.4136 25.5132C97.603 26.1886 96.9141 27.0667 96.3467 28.1475C95.8063 29.2012 95.374 30.4035 95.0498 31.7544C94.7526 33.0783 94.5229 34.4157 94.3608 35.7666C94.2257 37.0905 94.1447 38.3604 94.1177 39.5762C94.0907 40.765 94.0771 41.7511 94.0771 42.5347V66H80.3384V19.1909H85.6069L90.6323 30.0928C91.7671 26.3102 93.5503 23.3652 95.9819 21.2578C98.4406 19.1234 101.696 18.0562 105.749 18.0562C109.396 18.0562 112.423 18.8127 114.827 20.3257C117.232 21.8387 119.123 24.2974 120.501 27.7017C121.285 26.2157 122.149 24.8783 123.095 23.6895C124.067 22.5007 125.135 21.4875 126.296 20.6499C127.485 19.8123 128.796 19.1774 130.228 18.7451C131.66 18.2858 133.24 18.0562 134.969 18.0562C138.157 18.0562 140.873 18.583 143.115 19.6367C145.385 20.6634 147.236 22.0954 148.667 23.9326C150.099 25.7699 151.14 27.9583 151.788 30.498C152.437 33.0107 152.761 35.7396 152.761 38.6846ZM173.146 43.791C174.821 44.1693 176.496 44.4665 178.171 44.6826C179.847 44.8988 181.535 45.0068 183.237 45.0068C185.021 45.0068 186.669 44.8447 188.182 44.5205C189.722 44.1693 191.046 43.6019 192.153 42.8184C193.288 42.0078 194.18 40.9406 194.828 39.6167C195.477 38.2928 195.801 36.6447 195.801 34.6724C195.801 33.0783 195.585 31.6193 195.152 30.2954C194.72 28.9715 194.072 27.8368 193.207 26.8911C192.369 25.9455 191.329 25.216 190.086 24.7026C188.844 24.1623 187.398 23.8921 185.75 23.8921C184.21 23.8921 182.819 24.1758 181.576 24.7432C180.36 25.3105 179.279 26.0806 178.333 27.0532C177.415 27.9989 176.618 29.1066 175.942 30.3765C175.294 31.6463 174.754 32.9702 174.321 34.3481C173.889 35.7261 173.578 37.1175 173.389 38.5225C173.2 39.9274 173.105 41.2513 173.105 42.4941C173.105 42.7103 173.105 42.9264 173.105 43.1426C173.105 43.3587 173.119 43.5749 173.146 43.791ZM206.905 34.5508C206.905 36.4691 206.595 38.1847 205.973 39.6978C205.352 41.1838 204.501 42.4941 203.42 43.6289C202.366 44.7637 201.137 45.7228 199.732 46.5063C198.327 47.2899 196.827 47.9383 195.233 48.4517C193.639 48.938 191.991 49.2892 190.289 49.5054C188.614 49.7215 186.979 49.8296 185.385 49.8296C183.359 49.8296 181.36 49.6945 179.387 49.4243C177.415 49.1271 175.47 48.6678 173.551 48.0464C173.848 49.8296 174.321 51.5317 174.97 53.1528C175.618 54.7469 176.483 56.1519 177.563 57.3677C178.644 58.5565 179.968 59.5021 181.535 60.2046C183.129 60.9071 185.007 61.2583 187.168 61.2583C188.6 61.2583 189.965 61.0422 191.262 60.6099C192.559 60.1776 193.747 59.5697 194.828 58.7861C195.909 58.0026 196.854 57.0705 197.665 55.9897C198.503 54.909 199.178 53.7067 199.691 52.3828L205.608 54.5713C204.717 56.7057 203.487 58.5565 201.92 60.1235C200.38 61.6636 198.624 62.9469 196.652 63.9736C194.707 64.9733 192.626 65.7163 190.411 66.2026C188.222 66.689 186.047 66.9321 183.886 66.9321C180.319 66.9321 177.023 66.3377 173.997 65.1489C170.971 63.9331 168.364 62.2445 166.175 60.083C163.987 57.9215 162.271 55.3413 161.028 52.3423C159.785 49.3433 159.164 46.0605 159.164 42.4941C159.164 38.9277 159.785 35.645 161.028 32.646C162.271 29.647 163.987 27.0667 166.175 24.9053C168.364 22.7438 170.971 21.0687 173.997 19.8799C177.023 18.6641 180.319 18.0562 183.886 18.0562C185.615 18.0562 187.385 18.1777 189.195 18.4209C191.005 18.6641 192.761 19.0558 194.463 19.5962C196.166 20.1095 197.773 20.785 199.286 21.6226C200.799 22.4601 202.11 23.5003 203.217 24.7432C204.352 25.959 205.244 27.3774 205.892 28.9985C206.568 30.6196 206.905 32.4704 206.905 34.5508Z" fill="#4D4D4D"/>
</svg>
